<svg id="Ebene_1" data-name="Ebene 1" xmlns="http://www.w3.org/2000/svg" width="14.9mm" height="21.2mm" viewBox="0 0 42.4 60"><defs><style>.cls-1,.cls-3{fill:none;stroke:#02234c;stroke-miterlimit:10;}.cls-1{stroke-width:3px;}.cls-2{fill:#02234c;}.cls-3{stroke-width:2px;}</style></defs><g id="Anti_Doping" data-name="Anti Doping"><path class="cls-1" d="M6.9,3.6V7.5a2,2,0,0,0,2,2H36.1a2,2,0,0,0,2.1-2V3.6a2,2,0,0,0-2.1-2H8.9A2,2,0,0,0,6.9,3.6Z" transform="translate(-1.3 -0.1)"/><path class="cls-1" d="M22.5,58.6H37.7a5.6,5.6,0,0,0,4.1-3.5,7.5,7.5,0,0,0,.4-2.6V20.6a5.8,5.8,0,0,0-.6-2.6,4.8,4.8,0,0,0-5.4-2.7.5.5,0,0,1-.5-.4V10a.5.5,0,0,0-.5-.5H22.5" transform="translate(-1.3 -0.1)"/><path class="cls-1" d="M22.5,58.6H7.4a5.5,5.5,0,0,1-4.1-3.5,7.5,7.5,0,0,1-.5-2.6V20.6A5.8,5.8,0,0,1,3.4,18a5,5,0,0,1,5.5-2.7c.2,0,.5-.2.5-.4V10a.5.5,0,0,1,.4-.5H22.5" transform="translate(-1.3 -0.1)"/><path class="cls-1" d="M8.7,15.1" transform="translate(-1.3 -0.1)"/><line class="cls-1" x1="1.3" y1="20.8" x2="40.9" y2="20.8"/><line class="cls-1" x1="1.4" y1="51" x2="41" y2="51"/><path class="cls-2" d="M16.8,42.9c-.3-.3-.2-1.1.3-1.7l9.7-11.6c.5-.6,1.2-.9,1.5-.5s.2,1-.3,1.6L18.4,42.3C17.9,42.9,17.2,43.2,16.8,42.9Z" transform="translate(-1.3 -0.1)"/><path class="cls-3" d="M16.8,42.9c-.3-.3-.2-1.1.3-1.7l9.7-11.6c.5-.6,1.2-.9,1.5-.5s.2,1-.3,1.6L18.4,42.3C17.9,42.9,17.2,43.2,16.8,42.9Z" transform="translate(-1.3 -0.1)"/><path class="cls-2" d="M28.3,42.9c.4-.3.2-1.1-.3-1.7L18.4,29.6c-.5-.6-1.2-.9-1.6-.5s-.2,1,.3,1.6l9.7,11.6C27.3,42.9,28,43.2,28.3,42.9Z" transform="translate(-1.3 -0.1)"/><path class="cls-3" d="M28.3,42.9c.4-.3.2-1.1-.3-1.7L18.4,29.6c-.5-.6-1.2-.9-1.6-.5s-.2,1,.3,1.6l9.7,11.6C27.3,42.9,28,43.2,28.3,42.9Z" transform="translate(-1.3 -0.1)"/></g></svg>