<svg id="Ebene_1" data-name="Ebene 1" xmlns="http://www.w3.org/2000/svg" width="18.2mm" height="21mm" viewBox="0 0 51.7 59.4"><defs><style>.cls-1,.cls-2{fill:none;stroke:#02234c;stroke-miterlimit:10;}.cls-1{stroke-width:3px;}.cls-2{stroke-width:2px;}</style></defs><path class="cls-1" d="M43.6,26.1c1.8,3,3.7,8.2,3.7,12A20.2,20.2,0,0,1,34.2,57a20.8,20.8,0,0,1-7.1,1.3A20.3,20.3,0,0,1,6.9,38.1a18.6,18.6,0,0,1,1.5-7.5,18.7,18.7,0,0,1,2-4" transform="translate(-1.2 -0.4)"/><path class="cls-2" d="M22.2,20.9" transform="translate(-1.2 -0.4)"/><path class="cls-2" d="M27.1,33.1" transform="translate(-1.2 -0.4)"/><path class="cls-2" d="M16.7,30.1c-.9.5-2.6,2.9-3.4,3.8a23.6,23.6,0,0,0-.6,8.3s1.8,3,7.4,4.8l6.8-4.4.3-10.8" transform="translate(-1.2 -0.4)"/><line class="cls-2" x1="12.2" y1="42" x2="7.6" y2="46.1"/><line class="cls-2" x1="12.2" y1="34.4" x2="5.8" y2="31.9"/><path class="cls-2" d="M31.3,53.6A17,17,0,0,0,33.7,47a45.5,45.5,0,0,1-6.8-4.4L20.1,47s.4,5,2.4,6.6A15.2,15.2,0,0,0,31.3,53.6Z" transform="translate(-1.2 -0.4)"/><path class="cls-2" d="M27.2,31.8l-.3,10.8L33.7,47c6-2.6,7-4.8,7-4.8a14.8,14.8,0,0,0,.1-7.9,3,3,0,0,0-.4-.8c-1.2-1.2-2-2.7-2.9-3.2" transform="translate(-1.2 -0.4)"/><line class="cls-2" x1="45.3" y1="32.8" x2="39.8" y2="34.4"/><line class="cls-2" x1="44.5" y1="46.1" x2="39.2" y2="43.1"/><line class="cls-2" x1="33" y1="56.5" x2="30.1" y2="53.3"/><line class="cls-2" x1="17.5" y1="56.5" x2="20.8" y2="52.7"/><path class="cls-1" d="M10.8,13.8l-.6,11.7a2.7,2.7,0,0,0,1,2.2s14.9,10.9,31.3-.2a2.2,2.2,0,0,0,1.2-1.9l-.5-11.8" transform="translate(-1.2 -0.4)"/><path class="cls-1" d="M3.2,11.5c-.7-.3-.7-.7,0-1L25.3,2.1a3.9,3.9,0,0,1,2.6,0l22.9,8.4c.8.3.8.7,0,1L28.3,20.1a3.9,3.9,0,0,1-2.6,0Z" transform="translate(-1.2 -0.4)"/></svg>