<svg xmlns="http://www.w3.org/2000/svg" xmlns:xlink="http://www.w3.org/1999/xlink" width="38" height="38" viewBox="0 0 38 38">
  <defs>
    <filter id="_Color" x="0" y="0" width="38" height="38" filterUnits="userSpaceOnUse">
      <feOffset dy="3" input="SourceAlpha"/>
      <feGaussianBlur stdDeviation="3" result="blur"/>
      <feFlood flood-color="#02234c" flood-opacity="0.4"/>
      <feComposite operator="in" in2="blur"/>
      <feComposite in="SourceGraphic"/>
    </filter>
  </defs>
  <g id="icon_alert_error_outline_24px" data-name="icon/alert/error_outline_24px" transform="translate(7 4)" style="isolation: isolate">
    <rect id="Boundary" width="24" height="24" fill="none"/>
    <g transform="matrix(1, 0, 0, 1, -7, -4)" filter="url(#_Color)">
      <path id="_Color-2" data-name=" ↳Color" d="M9.99,20A10,10,0,1,1,20,10,10.006,10.006,0,0,1,9.99,20ZM10,2a8,8,0,1,0,8,8A8.009,8.009,0,0,0,10,2Zm1,13H9V13h2v2Zm0-4H9V5h2v6Z" transform="translate(9 6)" fill="#02234c"/>
    </g>
  </g>
</svg>
