<?xml version="1.0" encoding="utf-8"?>
<!-- Generator: Adobe Illustrator 16.0.4, SVG Export Plug-In . SVG Version: 6.00 Build 0)  -->
<!DOCTYPE svg PUBLIC "-//W3C//DTD SVG 1.1//EN" "http://www.w3.org/Graphics/SVG/1.1/DTD/svg11.dtd">
<svg version="1.1" xmlns="http://www.w3.org/2000/svg" xmlns:xlink="http://www.w3.org/1999/xlink" x="0px" y="0px"
	 width="595.275px" height="841.89px" viewBox="0 0 595.275 841.89" enable-background="new 0 0 595.275 841.89"
	 xml:space="preserve">
<g id="Ebene_1">
</g>
<g id="Ebene_2">
	
		<rect x="-12.362" y="-7.544" fill-rule="evenodd" clip-rule="evenodd" fill="#536D8F" stroke="#536D8F" stroke-miterlimit="10" width="620" height="865"/>
	<g>
		<path fill-rule="evenodd" clip-rule="evenodd" fill="#FFFFFF" d="M285.188,212.672c43.898-0.008,87.801-0.146,131.698,0.051
			c22.3,0.1,35.18,15.184,24.14,27.872c-5.025,5.776-12.656,8.821-22.694,8.821c-88.533-0.003-177.062,0.066-265.597-0.074
			c-15.441-0.025-25.982-7.812-26.074-18.175c-0.094-10.649,10.678-18.372,26.826-18.434
			C197.387,212.569,241.285,212.677,285.188,212.672z"/>
		<path fill-rule="evenodd" clip-rule="evenodd" fill="#FFFFFF" d="M364.469,292.168c43.898-0.008,87.801-0.146,131.698,0.051
			c22.3,0.1,35.18,15.184,24.14,27.872c-5.025,5.776-12.656,8.821-22.694,8.821c-88.533-0.003-177.062,0.066-265.597-0.074
			c-15.441-0.025-25.982-7.812-26.074-18.175c-0.094-10.649,10.678-18.372,26.826-18.434
			C276.668,292.065,320.566,292.173,364.469,292.168z"/>
		<path fill-rule="evenodd" clip-rule="evenodd" fill="#FFFFFF" d="M285.188,371.664c43.898-0.008,87.801-0.146,131.698,0.051
			c22.3,0.1,35.18,15.184,24.14,27.872c-5.025,5.776-12.656,8.821-22.694,8.821c-88.533-0.003-177.062,0.066-265.597-0.074
			c-15.441-0.025-25.982-7.812-26.074-18.175c-0.094-10.649,10.678-18.372,26.826-18.434
			C197.387,371.562,241.285,371.669,285.188,371.664z"/>
	</g>
</g>
</svg>
