<?xml version="1.0" encoding="utf-8"?>
<!-- Generator: Adobe Illustrator 16.0.4, SVG Export Plug-In . SVG Version: 6.00 Build 0)  -->
<!DOCTYPE svg PUBLIC "-//W3C//DTD SVG 1.1//EN" "http://www.w3.org/Graphics/SVG/1.1/DTD/svg11.dtd">
<svg version="1.1" xmlns="http://www.w3.org/2000/svg" xmlns:xlink="http://www.w3.org/1999/xlink" x="0px" y="0px"
	 width="595.275px" height="841.89px" viewBox="0 0 595.275 841.89" enable-background="new 0 0 595.275 841.89"
	 xml:space="preserve">
<g id="Ebene_1">
	
		<rect x="-27.16" y="-20.886" fill-rule="evenodd" clip-rule="evenodd" fill="#858585" stroke="#858585" stroke-miterlimit="10" width="679.465" height="892.456"/>
</g>
<g id="Ebene_2">
	<g>
		<path fill="#FFFFFF" d="M324.787,363.591c40.98,0,81.977,0.094,122.949-0.061c13.783-0.044,21.676-6.708,21.939-17.724
			c0.271-11.414-7.877-18.281-22.096-18.622c-2.398-0.06-4.789-0.016-7.188-0.016c-66.594,0-133.193,0-199.795,0
			c-25.857,0-25.857,0-30.252-25.199c-2.111-12.168-2.111-12.176,10.682-12.176c75.141,0,150.283,0.023,225.418-0.021
			c16.76-0.011,25.484-5.309,29.615-19.737c13.807-48.158,27.141-96.449,40.607-144.701c2.506-8.979,0.082-16.941-5.959-23.737
			c-6.496-7.293-15.229-8.17-24.373-8.17c-102.129,0.081-204.242,0.022-306.365,0.121c-6.15,0.005-10.479,0.263-11.387-8.329
			c-1.148-10.855-8.547-16.038-20.234-16.252c-16.729-0.295-33.461-0.333-50.195,0.006c-12.662,0.263-20.578,7.646-20.525,18.194
			c0.049,10.518,7.979,17.652,20.674,18.058c9.555,0.307,19.146,0.459,28.68-0.055c6.811-0.361,9.176,1.92,10.449,8.821
			c14.064,76.099,28.57,152.115,42.945,228.153c3.162,16.755,8.631,21.418,25.549,21.438
			C245.543,363.618,285.164,363.591,324.787,363.591z M175.949,424.723c-0.312,19.974,16.002,36.854,35.908,37.154
			c19.463,0.285,36.678-16.782,36.76-36.449c0.076-19.255-16.055-35.867-35.547-36.601
			C193.504,388.088,176.273,404.756,175.949,424.723z M433.789,388.8c-19.766-0.164-36.488,16.635-36.443,36.602
			c0.039,19.579,15.939,35.87,35.568,36.449c19.438,0.586,36.729-16.251,37.1-36.082C470.375,406.255,453.428,388.964,433.789,388.8
			z"/>
		<path fill-rule="evenodd" clip-rule="evenodd" fill="#FFFFFF" d="M324.787,363.591c-39.623,0-79.244,0.027-118.861-0.007
			c-16.918-0.021-22.387-4.684-25.549-21.438c-14.375-76.038-28.881-152.055-42.945-228.153c-1.273-6.901-3.639-9.183-10.449-8.821
			c-9.533,0.514-19.125,0.361-28.68,0.055c-12.695-0.405-20.625-7.54-20.674-18.058c-0.053-10.549,7.863-17.932,20.525-18.194
			c16.734-0.339,33.467-0.301,50.195-0.006c11.688,0.214,19.086,5.396,20.234,16.252c0.908,8.592,5.236,8.334,11.387,8.329
			c102.123-0.099,204.236-0.04,306.365-0.121c9.145,0,17.877,0.877,24.373,8.17c6.041,6.796,8.465,14.758,5.959,23.737
			c-13.467,48.252-26.801,96.543-40.607,144.701c-4.131,14.429-12.855,19.727-29.615,19.737
			c-75.135,0.044-150.277,0.021-225.418,0.021c-12.793,0-12.793,0.008-10.682,12.176c4.395,25.199,4.395,25.199,30.252,25.199
			c66.602,0,133.201,0,199.795,0c2.398,0,4.789-0.044,7.188,0.016c14.219,0.341,22.367,7.208,22.096,18.622
			c-0.264,11.016-8.156,17.68-21.939,17.724C406.764,363.685,365.768,363.591,324.787,363.591z"/>
		<path fill-rule="evenodd" clip-rule="evenodd" fill="#FFFFFF" d="M175.949,424.723c0.324-19.967,17.555-36.635,37.121-35.896
			c19.492,0.733,35.623,17.346,35.547,36.601c-0.082,19.667-17.297,36.734-36.76,36.449
			C191.951,461.577,175.637,444.696,175.949,424.723z"/>
		<path fill-rule="evenodd" clip-rule="evenodd" fill="#FFFFFF" d="M433.789,388.8c19.639,0.164,36.586,17.455,36.225,36.969
			c-0.371,19.831-17.662,36.668-37.1,36.082c-19.629-0.579-35.529-16.87-35.568-36.449
			C397.301,405.435,414.023,388.636,433.789,388.8z"/>
	</g>
</g>
</svg>
