<?xml version="1.0" encoding="utf-8"?>
<!-- Generator: Adobe Illustrator 16.0.4, SVG Export Plug-In . SVG Version: 6.00 Build 0)  -->
<!DOCTYPE svg PUBLIC "-//W3C//DTD SVG 1.1//EN" "http://www.w3.org/Graphics/SVG/1.1/DTD/svg11.dtd">
<svg version="1.1" xmlns="http://www.w3.org/2000/svg" xmlns:xlink="http://www.w3.org/1999/xlink" x="0px" y="0px"
	 width="595.275px" height="841.89px" viewBox="0 0 595.275 841.89" enable-background="new 0 0 595.275 841.89"
	 xml:space="preserve">
<g id="Ebene_1">
	
		<rect x="-17.362" y="-17.544" fill-rule="evenodd" clip-rule="evenodd" fill="#536D8F" stroke="#536D8F" stroke-miterlimit="10" width="620" height="865"/>
</g>
<g id="Ebene_2">
	<path fill-rule="evenodd" clip-rule="evenodd" fill="#FFFFFF" d="M274.651,327.909c-21.319,0-40.726,0.006-60.131-0.001
		c-10.414-0.005-107.156,0.198-117.561-0.111c-9.958-0.296-16.444-6.613-16.913-15.774c-0.518-10.08,4.749-16.882,14.862-18.343
		c5.23-0.755,10.599-0.745,15.906-0.763c23.139-0.074,132.602-0.016,155.739-0.07c1.745-0.004,4.177,0.854,5.047-1.124
		c0.9-2.05-1.485-3.128-2.704-4.348c-9.315-9.337-18.698-18.605-28.082-27.874c-2.649-2.618-5.119-5.335-6.527-8.872
		c-2.935-7.356-1-15.43,4.88-20.141c5.739-4.599,14.561-4.974,20.776-0.743c1.705,1.161,3.237,2.621,4.704,4.087
		c20.798,20.762,41.609,41.509,62.332,62.344c9.27,9.32,9.502,19.397,0.365,28.636c-20.989,21.222-42.124,42.303-63.317,63.323
		c-6.918,6.861-14.688,8.16-22.139,4.324c-6.388-3.289-9.777-10.39-8.726-18.148c0.627-4.624,3.243-8.054,6.434-11.206
		c9.713-9.594,19.4-19.212,29.079-28.84C270.283,332.666,271.786,330.966,274.651,327.909z"/>
	<path fill-rule="evenodd" clip-rule="evenodd" fill="#FFFFFF" d="M408.356,311.251c-0.01-37.058-0.182-74.119,0.063-111.176
		c0.122-18.825,18.827-29.698,34.562-20.379c7.163,4.243,10.938,10.685,10.938,19.158c-0.004,74.737,0.083,149.472-0.092,224.21
		c-0.031,13.036-9.688,21.934-22.536,22.011c-13.206,0.08-22.781-9.013-22.857-22.646
		C408.229,385.371,408.363,348.312,408.356,311.251z"/>
</g>
</svg>
