<?xml version="1.0" encoding="utf-8"?>
<!-- Generator: Adobe Illustrator 16.0.4, SVG Export Plug-In . SVG Version: 6.00 Build 0)  -->
<!DOCTYPE svg PUBLIC "-//W3C//DTD SVG 1.1//EN" "http://www.w3.org/Graphics/SVG/1.1/DTD/svg11.dtd">
<svg version="1.1" xmlns="http://www.w3.org/2000/svg" xmlns:xlink="http://www.w3.org/1999/xlink" x="0px" y="0px"
	 width="595.276px" height="841.89px" viewBox="0 0 595.276 841.89" enable-background="new 0 0 595.276 841.89"
	 xml:space="preserve">
<g id="Ebene_1">
	
		<rect x="-12.629" y="-24.958" fill-rule="evenodd" clip-rule="evenodd" fill="#536D8F" stroke="#536D8F" stroke-miterlimit="10" width="679.466" height="892.456"/>
</g>
<g id="Ebene_2">
	<g>
		<path fill="#FFFFFF" d="M324.788,363.591c40.979,0,81.977,0.094,122.949-0.061c13.783-0.044,21.675-6.708,21.938-17.724
			c0.271-11.414-7.876-18.281-22.096-18.622c-2.398-0.06-4.789-0.016-7.187-0.016c-66.594,0-133.193,0-199.796,0
			c-25.856,0-25.856,0-30.251-25.199c-2.111-12.168-2.111-12.176,10.682-12.176c75.141,0,150.283,0.023,225.418-0.021
			c16.76-0.011,25.484-5.309,29.614-19.737c13.807-48.158,27.142-96.449,40.608-144.701c2.506-8.979,0.081-16.941-5.959-23.737
			c-6.497-7.293-15.229-8.17-24.373-8.17c-102.129,0.081-204.242,0.022-306.365,0.121c-6.15,0.005-10.479,0.263-11.387-8.329
			c-1.149-10.855-8.548-16.038-20.235-16.252c-16.729-0.295-33.461-0.333-50.194,0.006c-12.663,0.263-20.579,7.646-20.525,18.194
			c0.049,10.518,7.979,17.652,20.674,18.058c9.554,0.307,19.146,0.459,28.679-0.055c6.812-0.361,9.177,1.92,10.45,8.821
			c14.063,76.099,28.569,152.115,42.944,228.153c3.163,16.755,8.631,21.418,25.549,21.438
			C245.542,363.618,285.165,363.591,324.788,363.591z M175.95,424.723c-0.312,19.974,16.001,36.854,35.907,37.154
			c19.464,0.285,36.679-16.782,36.76-36.449c0.077-19.255-16.054-35.867-35.546-36.601
			C193.503,388.088,176.273,404.756,175.95,424.723z M433.789,388.8c-19.765-0.164-36.487,16.635-36.442,36.602
			c0.038,19.579,15.939,35.87,35.567,36.449c19.438,0.586,36.729-16.251,37.1-36.082C470.375,406.255,453.428,388.964,433.789,388.8
			z"/>
		<path fill-rule="evenodd" clip-rule="evenodd" fill="#FFFFFF" d="M324.788,363.591c-39.623,0-79.245,0.027-118.862-0.007
			c-16.918-0.021-22.386-4.684-25.549-21.438c-14.375-76.038-28.881-152.055-42.944-228.153c-1.273-6.901-3.639-9.183-10.45-8.821
			c-9.533,0.514-19.125,0.361-28.679,0.055c-12.695-0.405-20.625-7.54-20.674-18.058c-0.054-10.549,7.862-17.932,20.525-18.194
			c16.733-0.339,33.466-0.301,50.194-0.006c11.688,0.214,19.086,5.396,20.235,16.252c0.908,8.592,5.236,8.334,11.387,8.329
			c102.123-0.099,204.236-0.04,306.365-0.121c9.144,0,17.876,0.877,24.373,8.17c6.04,6.796,8.465,14.758,5.959,23.737
			c-13.467,48.252-26.802,96.543-40.608,144.701c-4.13,14.429-12.854,19.727-29.614,19.737
			c-75.135,0.044-150.277,0.021-225.418,0.021c-12.793,0-12.793,0.008-10.682,12.176c4.395,25.199,4.395,25.199,30.251,25.199
			c66.603,0,133.202,0,199.796,0c2.397,0,4.788-0.044,7.187,0.016c14.22,0.341,22.367,7.208,22.096,18.622
			c-0.264,11.016-8.155,17.68-21.938,17.724C406.764,363.685,365.767,363.591,324.788,363.591z"/>
		<path fill-rule="evenodd" clip-rule="evenodd" fill="#FFFFFF" d="M175.95,424.723c0.323-19.967,17.554-36.635,37.121-35.896
			c19.492,0.733,35.623,17.346,35.546,36.601c-0.081,19.667-17.296,36.734-36.76,36.449
			C191.951,461.577,175.637,444.696,175.95,424.723z"/>
		<path fill-rule="evenodd" clip-rule="evenodd" fill="#FFFFFF" d="M433.789,388.8c19.64,0.164,36.587,17.455,36.225,36.969
			c-0.371,19.831-17.662,36.668-37.1,36.082c-19.628-0.579-35.529-16.87-35.567-36.449
			C397.301,405.435,414.024,388.636,433.789,388.8z"/>
	</g>
</g>
</svg>
