<?xml version="1.0" encoding="utf-8"?>
<!-- Generator: Adobe Illustrator 16.0.4, SVG Export Plug-In . SVG Version: 6.00 Build 0)  -->
<!DOCTYPE svg PUBLIC "-//W3C//DTD SVG 1.1//EN" "http://www.w3.org/Graphics/SVG/1.1/DTD/svg11.dtd">
<svg version="1.1" xmlns="http://www.w3.org/2000/svg" xmlns:xlink="http://www.w3.org/1999/xlink" x="0px" y="0px"
	 width="595.275px" height="841.89px" viewBox="0 0 595.275 841.89" enable-background="new 0 0 595.275 841.89"
	 xml:space="preserve">
<g id="Ebene_1">
	
		<rect x="-12.629" y="-24.958" fill-rule="evenodd" clip-rule="evenodd" fill="#536D8F" stroke="#536D8F" stroke-miterlimit="10" width="679.465" height="892.456"/>
</g>
<g id="Ebene_2">
	<g>
		<g>
			<path fill="none" d="M289.799,242.014c0,33.723-0.016,67.444,0.025,101.166c0.006,3.526,0.1,7.087,0.585,10.571
				c2.271,16.31,11.702,24.661,28.154,24.686c49.522,0.075,99.044,0.078,148.565-0.002c17.207-0.027,28.109-10.564,28.166-27.673
				c0.17-50.7-0.02-101.402,0.178-152.103c0.024-6.299-2.231-8.12-8.278-8.027c-18.86,0.288-37.729,0.185-56.595,0.068
				c-14.139-0.088-20.12-6.204-20.155-20.362c-0.049-19.102-0.061-38.202,0.005-57.303c0.016-4.267-0.639-7.296-6.048-7.27
				c-29.948,0.148-59.899-0.151-89.843,0.266c-11.977,0.166-21.391,8.995-23.573,20.756c-0.81,4.373-1.122,8.896-1.136,13.353
				C289.761,174.099,289.801,208.055,289.799,242.014z M459.921,174.608c9.432,0,18.862,0.05,28.292-0.046
				c1.735-0.018,4.155,0.916,5.017-1.305c0.678-1.752-1.285-2.848-2.399-3.965c-19.821-19.861-39.66-39.702-59.527-59.517
				c-1.106-1.104-2.184-2.924-4.055-2.163c-1.845,0.749-1.49,2.792-1.494,4.381c-0.036,18.626,0.058,37.253-0.066,55.88
				c-0.036,5.276,2.334,6.95,7.354,6.803C441.995,174.418,450.96,174.604,459.921,174.608z"/>
			<path fill-rule="evenodd" clip-rule="evenodd" fill="#FFFFFF" d="M289.801,242.014c0-33.959-0.04-67.915,0.049-101.874
				c0.014-4.457,0.326-8.979,1.136-13.353c2.183-11.761,11.597-20.59,23.573-20.756c29.943-0.417,59.895-0.117,89.843-0.266
				c5.409-0.026,6.063,3.003,6.048,7.27c-0.065,19.101-0.054,38.201-0.005,57.303c0.035,14.158,6.017,20.274,20.155,20.362
				c18.865,0.116,37.734,0.22,56.595-0.068c6.047-0.093,8.303,1.729,8.278,8.027c-0.197,50.7-0.008,101.402-0.178,152.103
				c-0.057,17.108-10.959,27.646-28.166,27.673c-49.521,0.08-99.043,0.077-148.565,0.002c-16.452-0.024-25.884-8.376-28.154-24.686
				c-0.485-3.484-0.579-7.045-0.585-10.571C289.783,309.458,289.799,275.736,289.801,242.014z M393.047,258.684
				c12.02,0,24.039,0.028,36.058-0.026c2.341-0.012,4.736-0.099,7.009-0.602c3.799-0.842,6.287-3.051,6.326-7.328
				c0.039-4.246-2.292-6.619-6.135-7.463c-2.496-0.551-5.131-0.663-7.703-0.67c-24.039-0.047-48.077-0.057-72.118,0.012
				c-2.794,0.008-5.661,0.256-8.361,0.929c-3.618,0.904-5.481,3.604-5.382,7.341c0.092,3.41,1.876,5.909,5.188,6.781
				c2.468,0.648,5.09,0.961,7.646,0.981C368.063,258.734,380.557,258.682,393.047,258.684z M393.129,292.663
				c7.305,0,14.61,0.021,21.917-0.007c6.361-0.024,12.742,0.185,19.078-0.257c4.519-0.313,8.281-2.282,8.296-7.776
				c0.012-5.492-3.747-7.167-8.254-7.872c-1.847-0.289-3.762-0.199-5.645-0.2c-24.04-0.012-48.079-0.012-72.119-0.003
				c-3.059,0.001-6.128-0.128-9.039,1.161c-3.166,1.4-4.75,3.835-4.624,7.226c0.114,3.08,1.7,5.278,4.585,6.547
				c2.683,1.181,5.5,1.175,8.33,1.177C368.146,292.659,380.636,292.658,393.129,292.663z M393.129,310.525c0,0.021,0,0.044,0,0.066
				c-13.669,0-27.341-0.126-41.007,0.067c-4.819,0.068-9.142,1.916-9.325,7.589c-0.199,6.107,4.233,7.804,9.365,8.311
				c0.936,0.093,1.884,0.07,2.826,0.07c24.983,0.004,49.965,0,74.946,0.006c2.841,0,5.647-0.103,8.3-1.332
				c2.898-1.343,4.205-3.605,4.197-6.745c-0.007-3.142-1.331-5.388-4.234-6.721c-2.658-1.22-5.463-1.317-8.303-1.316
				C417.639,310.529,405.384,310.525,393.129,310.525z"/>
			<path fill-rule="evenodd" clip-rule="evenodd" fill="#FFFFFF" d="M459.921,174.607c-8.961-0.003-17.926-0.189-26.879,0.069
				c-5.021,0.147-7.391-1.526-7.354-6.803c0.124-18.627,0.03-37.254,0.066-55.88c0.004-1.589-0.351-3.632,1.494-4.381
				c1.871-0.761,2.948,1.059,4.055,2.163c19.867,19.814,39.706,39.655,59.527,59.517c1.114,1.117,3.077,2.213,2.399,3.965
				c-0.861,2.221-3.281,1.287-5.017,1.305C478.783,174.658,469.353,174.608,459.921,174.607z"/>
			<path fill-rule="evenodd" clip-rule="evenodd" fill="none" d="M393.047,258.682c-12.49,0-24.983,0.053-37.473-0.043
				c-2.556-0.021-5.178-0.333-7.646-0.981c-3.312-0.872-5.097-3.371-5.188-6.781c-0.1-3.736,1.764-6.437,5.382-7.341
				c2.7-0.673,5.567-0.921,8.361-0.929c24.041-0.068,48.079-0.059,72.118-0.012c2.572,0.007,5.207,0.119,7.703,0.67
				c3.843,0.844,6.174,3.217,6.135,7.463c-0.039,4.277-2.527,6.486-6.326,7.328c-2.272,0.503-4.668,0.59-7.009,0.602
				C417.086,258.712,405.066,258.684,393.047,258.682z"/>
			<path fill-rule="evenodd" clip-rule="evenodd" fill="none" d="M393.129,292.661c-12.493-0.003-24.983-0.002-37.475-0.003
				c-2.83-0.002-5.647,0.004-8.33-1.177c-2.885-1.269-4.471-3.467-4.585-6.547c-0.126-3.391,1.458-5.825,4.624-7.226
				c2.911-1.289,5.98-1.16,9.039-1.161c24.04-0.009,48.079-0.009,72.119,0.003c1.883,0.001,3.798-0.089,5.645,0.2
				c4.507,0.705,8.266,2.38,8.254,7.872c-0.015,5.494-3.777,7.463-8.296,7.776c-6.336,0.441-12.717,0.232-19.078,0.257
				C407.739,292.685,400.434,292.663,393.129,292.661z"/>
			<path fill-rule="evenodd" clip-rule="evenodd" fill="none" d="M393.129,310.525c12.255,0,24.51,0.004,36.766-0.005
				c2.84-0.001,5.645,0.097,8.303,1.316c2.903,1.333,4.228,3.579,4.234,6.721c0.008,3.14-1.299,5.402-4.197,6.745
				c-2.652,1.229-5.459,1.332-8.3,1.332c-24.981-0.006-49.963-0.002-74.946-0.006c-0.942,0-1.891,0.022-2.826-0.07
				c-5.132-0.507-9.564-2.203-9.365-8.311c0.184-5.673,4.506-7.521,9.325-7.589c13.666-0.193,27.338-0.067,41.007-0.067
				C393.129,310.569,393.129,310.547,393.129,310.525z"/>
		</g>
		<g>
			<path fill-rule="evenodd" clip-rule="evenodd" fill="#FFFFFF" d="M454.092,391.85c-49.521,0.08-99.043,0.077-148.565,0.002
				c-16.452-0.024-25.884-8.376-28.154-24.686c-0.485-3.484-0.579-7.045-0.585-10.571c-0.041-33.722-0.025-67.443-0.023-101.166
				c0-33.959-0.04-67.915,0.049-101.874c0.008-2.592,0.135-5.203,0.383-7.797c-0.688,0.01-1.375,0.014-2.062,0.023
				c-11.977,0.166-21.391,8.995-23.573,20.756c-0.81,4.373-1.122,8.896-1.136,13.353c-0.089,33.959-0.049,67.915-0.049,101.874
				c-0.002,33.723-0.018,67.444,0.023,101.166c0.006,3.526,0.1,7.087,0.585,10.571c2.271,16.31,11.702,24.661,28.154,24.686
				c49.522,0.075,99.044,0.078,148.565-0.002c16.768-0.026,27.543-10.036,28.136-26.377
				C455.264,391.833,454.682,391.849,454.092,391.85z"/>
		</g>
		<g>
			<path fill-rule="evenodd" clip-rule="evenodd" fill="#FFFFFF" d="M414.666,431.6c-49.521,0.08-99.043,0.077-148.565,0.002
				c-16.452-0.024-25.884-8.376-28.154-24.686c-0.485-3.484-0.579-7.045-0.585-10.571c-0.041-33.722-0.025-67.443-0.023-101.166
				c0-33.959-0.04-67.915,0.049-101.874c0.008-2.592,0.135-5.203,0.383-7.797c-0.688,0.01-1.375,0.014-2.062,0.023
				c-11.977,0.166-21.391,8.995-23.573,20.756c-0.81,4.373-1.122,8.896-1.136,13.353c-0.089,33.959-0.049,67.915-0.049,101.874
				c-0.002,33.723-0.018,67.444,0.023,101.166c0.006,3.526,0.1,7.087,0.585,10.571c2.271,16.31,11.702,24.661,28.154,24.686
				c49.522,0.075,99.044,0.078,148.565-0.002c16.768-0.026,27.543-10.036,28.136-26.377
				C415.838,431.583,415.256,431.599,414.666,431.6z"/>
		</g>
		<g>
			<path fill-rule="evenodd" clip-rule="evenodd" fill="#FFFFFF" d="M375.24,471.35c-49.521,0.08-99.043,0.077-148.565,0.002
				c-16.452-0.024-25.884-8.376-28.154-24.686c-0.485-3.484-0.579-7.045-0.585-10.571c-0.041-33.722-0.025-67.443-0.023-101.166
				c0-33.959-0.04-67.915,0.049-101.874c0.008-2.592,0.135-5.203,0.383-7.797c-0.688,0.01-1.375,0.014-2.062,0.023
				c-11.977,0.166-21.391,8.995-23.573,20.756c-0.81,4.373-1.122,8.896-1.136,13.353c-0.089,33.959-0.049,67.915-0.049,101.874
				c-0.002,33.723-0.018,67.444,0.023,101.166c0.006,3.526,0.1,7.087,0.585,10.571c2.271,16.31,11.702,24.661,28.154,24.686
				c49.522,0.075,99.044,0.078,148.565-0.002c16.768-0.026,27.543-10.036,28.136-26.377
				C376.412,471.333,375.83,471.349,375.24,471.35z"/>
		</g>
	</g>
</g>
</svg>
