<svg id="Ebene_1" data-name="Ebene 1" xmlns="http://www.w3.org/2000/svg" width="16.7mm" height="21.1mm" viewBox="0 0 47.4 59.8"><defs><style>.cls-1{fill:none;stroke:#02234c;stroke-miterlimit:10;stroke-width:3px;}</style></defs><g id="Nutrition"><path class="cls-1" d="M7.7,21.6s-1.7,28,14,30.6H38.4s16-1.5,13.4-30.6Z" transform="translate(-6.2 -0.3)"/><path class="cls-1" d="M10.4,22c-.9-1.3,0-1.3.9-3.2A3.6,3.6,0,0,1,7.7,16a4.6,4.6,0,0,1,1.8-4s-2.1-3.6.6-5.6a3.4,3.4,0,0,1,4.5.6s4.1-3.1,6.2,2.5c0,0,3.5-2.3,5.6-1s2.2,2.3,2.5,4.8" transform="translate(-6.2 -0.3)"/><path class="cls-1" d="M19.9,21.6a11,11,0,0,1,9.6-9.3,10.4,10.4,0,0,1,10.4,9.3Z" transform="translate(-6.2 -0.3)"/><line class="cls-1" x1="10.8" y1="13.6" x2="14.9" y2="17.9"/><path class="cls-1" d="M25.9,21.2a4.4,4.4,0,0,1,3.8-3.8,4.2,4.2,0,0,1,4.2,3.8" transform="translate(-6.2 -0.3)"/><path class="cls-1" d="M30.9,12.6s0-5.3,4.5-5.9c0,0,.6-4.9,4.8-4.9,0,0,4.4-.4,4.7,5.5,0,0,3.3-.3,3.6,3.8" transform="translate(-6.2 -0.3)"/><path class="cls-1" d="M38.7,17.3a12.5,12.5,0,0,1,12.8-6.5s1.2,4-3.6,11.2" transform="translate(-6.2 -0.3)"/><path class="cls-1" d="M23.4,52.2A1.4,1.4,0,0,0,22,53.6v3.5a1.5,1.5,0,0,0,1.5,1.5H38.2a1.5,1.5,0,0,0,1.4-1.5V53.6a1.4,1.4,0,0,0-1.4-1.4Z" transform="translate(-6.2 -0.3)"/></g></svg>