<svg id="Ebene_1" data-name="Ebene 1" xmlns="http://www.w3.org/2000/svg" width="12.4mm" height="21.1mm" viewBox="0 0 35.2 59.8"><defs><style>.cls-1{fill:none;stroke:#02234c;stroke-miterlimit:10;stroke-width:3px;}.cls-2{fill:#02234c;}</style></defs><g id="Regeneration"><rect class="cls-1" x="1.5" y="6.6" width="32.2" height="51.63" rx="1.4"/><path class="cls-1" d="M21.9,1.7a1.4,1.4,0,0,0-1.4,1.4V5.4a1.4,1.4,0,0,0,1.4,1.4H36a1.4,1.4,0,0,0,1.4-1.4V3.1A1.4,1.4,0,0,0,36,1.7Z" transform="translate(-11.2 -0.2)"/><path class="cls-2" d="M41.3,39.5c0,.5-.6.9-1.4.9h-22c-.7,0-1.4-.4-1.4-.9s.7-.9,1.4-.9h22C40.7,38.6,41.3,39,41.3,39.5Z" transform="translate(-11.2 -0.2)"/><path class="cls-2" d="M41.3,33.1c0,.5-.6.9-1.4.9H18c-.8,0-1.5-.4-1.5-.9s.7-.9,1.5-.9H39.9C40.7,32.2,41.3,32.6,41.3,33.1Z" transform="translate(-11.2 -0.2)"/><path class="cls-2" d="M41.3,26.7c0,.5-.6.9-1.4.9H18c-.8,0-1.5-.4-1.5-.9s.7-.9,1.5-.8H39.9C40.7,25.8,41.3,26.2,41.3,26.7Z" transform="translate(-11.2 -0.2)"/><path class="cls-2" d="M41.3,45.9c0,.4-.6.8-1.4.8h-22c-.7,0-1.4-.4-1.4-.9s.7-.9,1.4-.9h22C40.7,45,41.3,45.4,41.3,45.9Z" transform="translate(-11.2 -0.2)"/><path class="cls-2" d="M41.3,52.2c0,.5-.6.9-1.4.9h-22c-.8,0-1.4-.4-1.4-.9s.6-.9,1.4-.9h22C40.7,51.3,41.3,51.8,41.3,52.2Z" transform="translate(-11.2 -0.2)"/></g></svg>