<svg id="Ebene_1" data-name="Ebene 1" xmlns="http://www.w3.org/2000/svg" width="16.4mm" height="21.1mm" viewBox="0 0 46.5 59.7"><defs><style>.cls-1,.cls-2{fill:none;stroke:#02234c;stroke-miterlimit:10;}.cls-1{stroke-width:3px;}.cls-2{stroke-width:2px;}.cls-3{fill:#02234c;}</style></defs><g id="Media"><path class="cls-1" d="M42.9,35.6V52.8a5.7,5.7,0,0,1-5.7,5.6H16.4a5.6,5.6,0,0,1-5.7-5.6V7.3a5.6,5.6,0,0,1,5.7-5.6H37.2c3.1,0,5.7,2.1,5.7,4.7V11" transform="translate(-9.2 -0.2)"/><path class="cls-2" d="M20.2,2.2a14.8,14.8,0,0,0-.1,1.6A2.1,2.1,0,0,0,22.2,6h9.3a1.8,1.8,0,0,0,1.8-1.7,6.5,6.5,0,0,0-.2-2.1" transform="translate(-9.2 -0.2)"/><path class="cls-1" d="M28.8,35.6H27a1.4,1.4,0,0,1-1.4-1.4V12.5A1.5,1.5,0,0,1,27,11H52.8a1.5,1.5,0,0,1,1.4,1.5V34.2a1.4,1.4,0,0,1-1.4,1.4H35.1" transform="translate(-9.2 -0.2)"/><path class="cls-1" d="M29.1,34.1v4.8h0l6.7-3.5" transform="translate(-9.2 -0.2)"/><path class="cls-2" d="M35.8,16.9c-.1,1.2-.1,5.5,2.4,8.3.1,0,.1.2.1.3l-.6,1.8h-.1a1.1,1.1,0,0,0-1.1,1.1v1.2c0,.2.1.4.3.4h5.9a.4.4,0,0,0,.4-.4V28.4h0c-.1-.2-.4-.9-1.1-.9a.3.3,0,0,1-.3-.3l-.4-1.6a.4.4,0,0,1,.1-.3c.5-.6,2.5-3,2.5-8.3,0-.2-.2-.3-.4-.3H36.1A.3.3,0,0,0,35.8,16.9Z" transform="translate(-9.2 -0.2)"/><path class="cls-2" d="M44.7,17.5h1.8a.5.5,0,0,1,.4.2c.2,1,.7,4.9-5,6.5" transform="translate(-9.2 -0.2)"/><path class="cls-2" d="M34.9,17.5H33.1l-.3.2c-.2,1-.7,4.9,4.8,6.5" transform="translate(-9.2 -0.2)"/></g><rect class="cls-3" x="11.8" y="52.8" width="11.4" height="1.98" rx="1"/></svg>