<svg id="Ebene_1" data-name="Ebene 1" xmlns="http://www.w3.org/2000/svg" width="17.1mm" height="21.1mm" viewBox="0 0 48.5 59.7"><defs><style>.cls-1{fill:none;stroke:#02234c;stroke-miterlimit:10;stroke-width:3px;}</style></defs><g id="Mental_Fitness" data-name="Mental Fitness"><path class="cls-1" d="M8.4,38.1a4.6,4.6,0,0,0,.3-2h0c-.1-1.4.4-2.2-3.6-2.6,0,0-1.4-.4-.8-2.5a5.2,5.2,0,0,1,1.1-1.9l2.1-2.5a4.4,4.4,0,0,0,.9-2.7V17.3S9,7.9,20.1,3.5a26.4,26.4,0,0,1,17.1-.6c5.5,1.7,11.1,8,12.1,14.4v1.3a45.1,45.1,0,0,1,0,9h0c0,.8-.1,1.6-.1,2.3a23.7,23.7,0,0,1-4.6,12.8c-.7,1-1.5,8.8-1.5,10.4" transform="translate(-2.7 -0.2)"/><path class="cls-1" d="M43.2,53.1l.3,5c.1.6-1.3.3-1.9.3H23.4A1.4,1.4,0,0,1,22,57.2c-.5-2.3,1.2-6.7-3.6-8.2a2,2,0,0,0-1.1-.2l-2.5.2H13a3.5,3.5,0,0,1-4-2.7A5.8,5.8,0,0,1,8.8,44v-.3c.1-1,.1-2-.2-2s.1.4-.5-.1-.6-.8-.3-1.9A9.2,9.2,0,0,0,8.5,38" transform="translate(-2.7 -0.2)"/><path class="cls-1" d="M27.2,9.5a15.7,15.7,0,0,0-4.2,5,2.4,2.4,0,0,1-2.6,1.1l-1.6-.2A2.3,2.3,0,0,0,16,16.9c-.8,3.7-.7,11.5,12.5,13.9h.8c2.5-.3,14.2-2.1,13.6-12.8-.1-1.2,0-2.7-1.9-2.4l-3.3.9a2.5,2.5,0,0,1-2.5-1.2,17.9,17.9,0,0,0-4.8-5.8A2.7,2.7,0,0,0,27.2,9.5Z" transform="translate(-2.7 -0.2)"/><path class="cls-1" d="M22.6,15.1s-2.8,9.3,6.7,15.3" transform="translate(-2.7 -0.2)"/><path class="cls-1" d="M35.3,15.5s2.9,9.3-6.7,15.3" transform="translate(-2.7 -0.2)"/></g></svg>