<svg id="Ebene_1" data-name="Ebene 1" xmlns="http://www.w3.org/2000/svg" width="15.9mm" height="21.2mm" viewBox="0 0 45.1 60.2"><defs><style>.cls-1{fill:none;stroke:#02234c;stroke-miterlimit:10;stroke-width:3px;}.cls-2{fill:#02234c;}</style></defs><g id="Sports_Law" data-name="Sports Law"><path class="cls-1" d="M8.1,51.5H3A1.5,1.5,0,0,1,1.5,50V3A1.5,1.5,0,0,1,3,1.5H42.1A1.5,1.5,0,0,1,43.6,3V50a1.5,1.5,0,0,1-1.5,1.5H19.6"/><path class="cls-1" d="M9.6,46.1V56c0,2.7,1.2,3.5,2.5,1.8a3.2,3.2,0,0,1,5.2,0c1.5,1.7,2.7.9,2.7-1.8V46.2"/><circle class="cls-1" cx="14.8" cy="41.7" r="6.5"/><path class="cls-2" d="M36.5,11.5A1.4,1.4,0,0,1,35,12.8H9.2a1.3,1.3,0,0,1-1.4-1.3,1.4,1.4,0,0,1,1.4-1.4H35A1.5,1.5,0,0,1,36.5,11.5Z"/><path class="cls-2" d="M36.5,18.5A1.4,1.4,0,0,1,35,19.8H9.2a1.3,1.3,0,0,1-1.4-1.3,1.4,1.4,0,0,1,1.4-1.4H35A1.5,1.5,0,0,1,36.5,18.5Z"/><path class="cls-2" d="M36.5,25.5A1.4,1.4,0,0,1,35,26.8H9.2a1.3,1.3,0,1,1,0-2.6H35A1.4,1.4,0,0,1,36.5,25.5Z"/><path class="cls-2" d="M36.5,32.5A1.5,1.5,0,0,1,35,33.9H23.4A1.4,1.4,0,0,1,22,32.5a1.3,1.3,0,0,1,1.4-1.3H35A1.4,1.4,0,0,1,36.5,32.5Z"/></g></svg>